<?xml version="1.0" encoding="UTF-8"?>
<svg id="Layer_1" xmlns="http://www.w3.org/2000/svg" version="1.1" viewBox="0 0 1000.08 945.6">
    <!-- Generator: Adobe Illustrator 29.0.0, SVG Export Plug-In . SVG Version: 2.1.0 Build 186)  -->
    <defs>
        <style>
            .st0 {
            fill: #fedf00;
            }
        </style>
    </defs>
    <path class="st0" d="M677.6,945.6H0V0h1000.08v945.6h-65.26V60H68.14v394.32l1.37-.07c29.04-62.07,76.82-116.54,134.48-153.49,145.45-93.22,359.97-80.51,487.04,38.83,1.84,1.73,13.41,12.49,13.22,13.73l-71.15,76.63c-2.72.28-5.63,1.09-8.26-.14-1.75-.82-10.72-10.62-13.46-12.93-114.21-96.48-296.47-89-396.63,24.24-129.99,146.97-72.17,396.29,118.41,456.61,88.77,28.1,196.47,12.15,274.38-37.81v-148.08h-195.07l-.72-.72v-111.12h310.49l.46,304.06c-13.17,15.57-28.5,29.57-45.09,41.54Z"/>
</svg>